<svg width="25" height="25" viewBox="0 0 25 25" fill="none" xmlns="http://www.w3.org/2000/svg">
<path d="M16.8748 4.02249C18.0342 4.02595 19.1451 4.48803 19.9648 5.30781C20.7846 6.12759 21.2467 7.23846 21.2502 8.3978V17.1475C21.2467 18.3068 20.7846 19.4177 19.9648 20.2375C19.1451 21.0573 18.0342 21.5193 16.8748 21.5228H8.12516C6.96582 21.5193 5.85495 21.0573 5.03517 20.2375C4.21539 19.4177 3.75331 18.3068 3.74984 17.1475V8.3978C3.75331 7.23846 4.21539 6.12759 5.03517 5.30781C5.85495 4.48803 6.96582 4.02595 8.12516 4.02249H16.8748ZM16.8748 2.27264H8.12516C4.75625 2.27264 2 5.02889 2 8.3978V17.1475C2 20.5164 4.75625 23.2726 8.12516 23.2726H16.8748C20.2437 23.2726 23 20.5164 23 17.1475V8.3978C23 5.02889 20.2437 2.27264 16.8748 2.27264Z" fill="white"/>
<path d="M18.1873 8.39783C17.9278 8.39783 17.674 8.32085 17.4582 8.17663C17.2423 8.03241 17.0741 7.82743 16.9748 7.5876C16.8754 7.34777 16.8494 7.08387 16.9001 6.82927C16.9507 6.57467 17.0757 6.34081 17.2593 6.15725C17.4428 5.97369 17.6767 5.84869 17.9313 5.79805C18.1859 5.7474 18.4498 5.7734 18.6896 5.87274C18.9294 5.97208 19.1344 6.1403 19.2786 6.35614C19.4229 6.57198 19.4998 6.82574 19.4998 7.08533C19.5002 7.25779 19.4665 7.42863 19.4007 7.58804C19.3349 7.74745 19.2382 7.89228 19.1163 8.01423C18.9943 8.13618 18.8495 8.23285 18.6901 8.29867C18.5306 8.3645 18.3598 8.3982 18.1873 8.39783ZM12.5 9.27252C13.1923 9.27252 13.869 9.4778 14.4446 9.8624C15.0202 10.247 15.4688 10.7936 15.7337 11.4332C15.9986 12.0728 16.068 12.7766 15.9329 13.4555C15.7978 14.1345 15.4645 14.7581 14.975 15.2477C14.4855 15.7372 13.8618 16.0705 13.1828 16.2056C12.5039 16.3406 11.8001 16.2713 11.1606 16.0064C10.521 15.7415 9.97433 15.2929 9.58973 14.7173C9.20513 14.1417 8.99985 13.4649 8.99985 12.7727C9.00084 11.8447 9.36992 10.955 10.0261 10.2988C10.6823 9.64259 11.572 9.27351 12.5 9.27252ZM12.5 7.52267C11.4617 7.52267 10.4466 7.83058 9.58326 8.40746C8.7199 8.98433 8.04699 9.80427 7.64963 10.7636C7.25227 11.7229 7.14831 12.7785 7.35088 13.7969C7.55345 14.8153 8.05347 15.7508 8.78769 16.485C9.52192 17.2192 10.4574 17.7192 11.4758 17.9218C12.4942 18.1244 13.5498 18.0204 14.5091 17.623C15.4684 17.2257 16.2883 16.5528 16.8652 15.6894C17.4421 14.8261 17.75 13.811 17.75 12.7727C17.75 11.3803 17.1969 10.0449 16.2123 9.06036C15.2277 8.0758 13.8924 7.52267 12.5 7.52267Z" fill="white"/>
</svg>
