<svg width="25" height="25" viewBox="0 0 25 25" fill="none" xmlns="http://www.w3.org/2000/svg">
<path d="M17.0999 6.59264C16.4163 5.81227 16.0396 4.81008 16.0399 3.77264H12.9499V16.1726C12.9261 16.8437 12.6428 17.4793 12.1597 17.9456C11.6766 18.4119 11.0314 18.6725 10.3599 18.6726C8.93991 18.6726 7.75991 17.5126 7.75991 16.0726C7.75991 14.3526 9.41991 13.0626 11.1299 13.5926V10.4326C7.67991 9.97264 4.65991 12.6526 4.65991 16.0726C4.65991 19.4026 7.41991 21.7726 10.3499 21.7726C13.4899 21.7726 16.0399 19.2226 16.0399 16.0726V9.78264C17.2929 10.6825 18.7973 11.1653 20.3399 11.1626V8.07264C20.3399 8.07264 18.4599 8.16264 17.0999 6.59264Z" fill="white"/>
</svg>
