<svg width="25" height="25" viewBox="0 0 25 25" fill="none" xmlns="http://www.w3.org/2000/svg">
<path d="M23.75 5.90546C22.906 6.27219 22.013 6.5138 21.0992 6.62265C22.0595 6.06033 22.7817 5.16698 23.1303 4.11015C22.2224 4.64105 21.2307 5.01356 20.1978 5.21171C19.7629 4.75587 19.2397 4.39323 18.6603 4.14584C18.0808 3.89846 17.4571 3.77149 16.827 3.77265C14.2761 3.77265 12.2117 5.80703 12.2117 8.31484C12.2099 8.66367 12.2499 9.01146 12.3308 9.35078C10.5016 9.26502 8.7104 8.79839 7.07187 7.98074C5.43333 7.16309 3.98351 6.01241 2.81516 4.60234C2.40527 5.29333 2.1885 6.08173 2.1875 6.88515C2.1875 8.46015 3.00922 9.85234 4.25 10.668C3.51487 10.6505 2.79481 10.4559 2.15094 10.1008V10.157C2.15094 12.3602 3.74469 14.193 5.85406 14.6102C5.4574 14.7159 5.04864 14.7695 4.63812 14.7695C4.34683 14.77 4.0562 14.7418 3.77047 14.6852C4.35687 16.4898 6.06359 17.8023 8.08531 17.8398C6.44252 19.1059 4.4256 19.7902 2.35156 19.7852C1.98341 19.7846 1.61561 19.7627 1.25 19.7195C3.35993 21.0668 5.81255 21.7795 8.31594 21.7727C16.8172 21.7727 21.4616 14.8492 21.4616 8.84453C21.4616 8.64765 21.4564 8.45078 21.447 8.25859C22.3485 7.61737 23.1283 6.82052 23.75 5.90546Z" fill="white"/>
</svg>
