<svg width="25" height="25" viewBox="0 0 25 25" fill="none" xmlns="http://www.w3.org/2000/svg">
<path d="M10.5 15.7726L15.69 12.7726L10.5 9.77264V15.7726ZM22.06 7.94264C22.19 8.41264 22.28 9.04264 22.34 9.84264C22.41 10.6426 22.44 11.3326 22.44 11.9326L22.5 12.7726C22.5 14.9626 22.34 16.5726 22.06 17.6026C21.81 18.5026 21.23 19.0826 20.33 19.3326C19.86 19.4626 19 19.5526 17.68 19.6126C16.38 19.6826 15.19 19.7126 14.09 19.7126L12.5 19.7726C8.31 19.7726 5.7 19.6126 4.67 19.3326C3.77 19.0826 3.19 18.5026 2.94 17.6026C2.81 17.1326 2.72 16.5026 2.66 15.7026C2.59 14.9026 2.56 14.2126 2.56 13.6126L2.5 12.7726C2.5 10.5826 2.66 8.97264 2.94 7.94264C3.19 7.04264 3.77 6.46264 4.67 6.21264C5.14 6.08264 6 5.99264 7.32 5.93264C8.62 5.86264 9.81 5.83264 10.91 5.83264L12.5 5.77264C16.69 5.77264 19.3 5.93264 20.33 6.21264C21.23 6.46264 21.81 7.04264 22.06 7.94264Z" fill="white"/>
</svg>
